<?xml version="1.0" encoding="UTF-8"?>
<svg version="1.1" xmlns="http://www.w3.org/2000/svg" width="512" height="512">
<path d="M0 0 C0.78745605 0.12358887 1.57491211 0.24717773 2.38623047 0.37451172 C49.53282294 8.11499705 94.11959754 29.74487114 129.05859375 62.28125 C131.68110332 64.72015828 134.36695267 67.07943007 137.0625 69.4375 C142.28951004 74.13762743 147.02710039 79.22474 151.66943359 84.49121094 C152.91241653 85.90068517 154.16862151 87.29846835 155.42578125 88.6953125 C189.79849601 128.18736776 212.12213854 182.72894251 212.16796875 235.16015625 C212.17119405 236.51761406 212.174559 237.87507155 212.17805481 239.23252869 C212.18400711 242.06738081 212.18589891 244.90220263 212.18530273 247.73706055 C212.18522172 250.60821872 212.19212994 253.47921651 212.20581055 256.3503418 C212.2971274 275.84103003 211.89188013 294.54491757 207.375 313.625 C207.11702637 314.72328125 206.85905273 315.8215625 206.59326172 316.953125 C197.13475966 355.79157592 178.12046936 392.95073018 150.6640625 422.1484375 C148.33925974 424.63686274 146.10414597 427.17658439 143.875 429.75 C124.56610587 451.20432681 101.46182895 467.67028996 76 481 C75.21979492 481.4125 74.43958984 481.825 73.63574219 482.25 C54.43584393 492.27687465 33.61548382 499.47605211 12.4375 504 C11.58502686 504.18344971 10.73255371 504.36689941 9.85424805 504.5559082 C-6.4888261 507.73028608 -23.16453136 508.33463021 -39.76660156 508.26074219 C-42.63107314 508.24997718 -45.49492157 508.26074565 -48.359375 508.2734375 C-63.64258528 508.28554224 -78.88586224 507.42484729 -93.875 504.25 C-94.68976807 504.08081055 -95.50453613 503.91162109 -96.34399414 503.73730469 C-119.27239265 498.80985422 -141.33785555 491.11437073 -162 480 C-162.95519531 479.49629883 -162.95519531 479.49629883 -163.9296875 478.98242188 C-181.0131368 469.94328755 -196.72382643 459.02068029 -211 446 C-211.6079541 445.45230957 -212.2159082 444.90461914 -212.84228516 444.34033203 C-260.49144396 401.32969551 -292.63571228 341.65655868 -296.82128906 276.9699707 C-297.18178087 268.96183245 -297.19816136 260.95256321 -297.1875 252.9375 C-297.18656342 252.02759308 -297.18562683 251.11768616 -297.18466187 250.1802063 C-297.10050811 212.47559345 -289.95746116 177.32545753 -274 143 C-273.66355469 142.27200195 -273.32710938 141.54400391 -272.98046875 140.79394531 C-265.24801285 124.24310096 -255.32219428 109.30269952 -244 95 C-243.56059082 94.44199707 -243.12118164 93.88399414 -242.66845703 93.30908203 C-229.58817209 76.90053073 -213.84553207 60.40896905 -196.71191406 48.22460938 C-194.83473759 46.88178034 -192.99275657 45.49694476 -191.1484375 44.109375 C-159.87964908 20.93126891 -122.29911734 6.21439177 -84 0 C-83.20867676 -0.12987305 -82.41735352 -0.25974609 -81.60205078 -0.39355469 C-55.68560536 -4.34662925 -25.87440394 -4.12605652 0 0 Z M52.63647461 115.26586914 C52.06421143 115.84973389 51.49194824 116.43359863 50.90234375 117.03515625 C50.26490234 117.68033203 49.62746094 118.32550781 48.97070312 118.99023438 C47.64231548 120.3441434 46.31417949 121.69829939 44.98632812 123.05273438 C44.33986328 123.70693359 43.69339844 124.36113281 43.02734375 125.03515625 C42.44718506 125.6269165 41.86702637 126.21867676 41.26928711 126.82836914 C39.33162717 128.68264404 37.35428656 130.4304718 35.32228088 132.17871094 C31.24467716 135.73932177 27.39008758 139.47478691 23.57421875 143.31225586 C22.88054703 144.00578156 22.18687531 144.69930725 21.47218323 145.41384888 C19.20824012 147.67848174 16.94784741 149.94662249 14.6875 152.21484375 C13.1073156 153.79689566 11.52690847 155.37872512 9.94628906 156.96034241 C5.80789763 161.10253278 1.67251946 165.24771857 -2.46221924 169.39355469 C-6.69043019 173.63203643 -10.92151052 177.86765171 -15.15234375 182.10351562 C-23.43769225 190.39955512 -31.71985738 198.69876482 -40 207 C-41.11905776 206.04715206 -42.2372159 205.09324751 -43.35499573 204.13890076 C-43.97776681 203.60780921 -44.60053789 203.07671766 -45.24218082 202.52953243 C-47.36840052 200.67944339 -49.3644164 198.73246793 -51.33984375 196.72265625 C-52.09330078 195.96146484 -52.84675781 195.20027344 -53.62304688 194.41601562 C-55.16214233 192.85094387 -56.701205 191.28583987 -58.24023438 189.72070312 C-58.99498047 188.95822266 -59.74972656 188.19574219 -60.52734375 187.41015625 C-61.19499756 186.73090088 -61.86265137 186.05164551 -62.55053711 185.35180664 C-64.46179568 183.51674695 -66.38990121 181.81370784 -68.40771484 180.10327148 C-74.24339322 175.02995352 -79.57859984 169.44865166 -84.98996544 163.93237305 C-88.36467081 160.49631466 -91.75514713 157.07584872 -95.14257812 153.65234375 C-99.43665905 149.31023356 -103.72594943 144.96364766 -108.00024414 140.60205078 C-111.47190381 137.06030374 -114.95789415 133.53324752 -118.45401955 130.01565552 C-119.78113713 128.6749313 -121.10281784 127.32880288 -122.41892052 125.9772644 C-124.25229286 124.09583274 -126.10334274 122.23369953 -127.9597168 120.375 C-128.76949226 119.53051048 -128.76949226 119.53051048 -129.59562683 118.66896057 C-132.58929944 115.70290318 -132.58929944 115.70290318 -136.59732056 114.91522217 C-139.4894517 116.22098094 -141.23684448 117.73563535 -143.4831543 119.98144531 C-144.33721359 120.82612366 -145.19127289 121.670802 -146.07121277 122.54107666 C-146.97970474 123.46080261 -147.88819672 124.38052856 -148.82421875 125.328125 C-149.77569478 126.27944596 -150.72783854 127.2300995 -151.68061829 128.18011475 C-153.67313864 130.17125225 -155.65851892 132.16916929 -157.63891602 134.17236328 C-160.1724347 136.73424681 -162.72119291 139.28029115 -165.27528667 141.82164383 C-167.24294879 143.78233585 -169.20314824 145.75035303 -171.16111183 147.72072601 C-172.55225232 149.11855299 -173.94889923 150.51089293 -175.34562683 151.90313721 C-176.19022964 152.76042419 -177.03483246 153.61771118 -177.9050293 154.50097656 C-179.0215815 155.62563324 -179.0215815 155.62563324 -180.16069031 156.77301025 C-182.08212242 159.09943175 -183.04562264 161.15403235 -184 164 C-183.43152344 164.556875 -182.86304688 165.11375 -182.27734375 165.6875 C-181.50519531 166.450625 -180.73304688 167.21375 -179.9375 168 C-179.18339844 168.7425 -178.42929688 169.485 -177.65234375 170.25 C-175.62576843 172.35119149 -173.71829085 174.46712709 -171.81993103 176.67907715 C-168.11936779 180.92052259 -164.2181852 184.91626406 -160.22875977 188.88476562 C-159.48646622 189.6272052 -158.74417267 190.36964478 -157.97938538 191.13458252 C-155.55242465 193.56085277 -153.12195318 195.98357275 -150.69140625 198.40625 C-148.99725323 200.09853577 -147.30332247 201.79104407 -145.60960388 203.48376465 C-141.17149401 207.91807358 -136.73038821 212.34936997 -132.28863525 216.7800293 C-127.74854022 221.30985792 -123.21130784 225.8425519 -118.67382812 230.375 C-109.7853393 239.25279427 -100.89377736 248.12750395 -92 257 C-93.31839295 259.91765769 -94.73611709 261.98321612 -97.00273132 264.23651123 C-97.61801193 264.85309601 -98.23329254 265.46968079 -98.86721802 266.10494995 C-99.5409848 266.76995514 -100.21475159 267.43496033 -100.90893555 268.12011719 C-101.61974777 268.82961517 -102.33056 269.53911316 -103.06291199 270.27011108 C-105.41628866 272.61699214 -107.77655823 274.95681801 -110.13671875 277.296875 C-111.77669764 278.93058105 -113.41616081 280.56480494 -115.05513 282.19952393 C-119.3768349 286.5079151 -123.70406044 290.81071509 -128.03289795 295.11193848 C-134.944871 301.9808438 -141.8502584 308.85635215 -148.75226784 315.73526764 C-151.15769493 318.13052671 -153.56653941 320.52230844 -155.97575378 322.91375732 C-157.46531865 324.39648705 -158.95477049 325.87933032 -160.4440918 327.36230469 C-161.10773743 328.01921295 -161.77138306 328.67612122 -162.45513916 329.35293579 C-166.2966168 333.18516249 -169.94114312 337.13213444 -173.47536945 341.24995804 C-175.52784385 343.60588376 -177.71165534 345.80839911 -179.9375 348 C-180.70964844 348.763125 -181.48179687 349.52625 -182.27734375 350.3125 C-182.84582031 350.869375 -183.41429687 351.42625 -184 352 C-182.63141214 356.11327909 -180.83608546 358.53873188 -177.78149414 361.59082031 C-176.47487572 362.90678192 -176.47487572 362.90678192 -175.14186096 364.24932861 C-174.18993268 365.19257029 -173.23769019 366.13549496 -172.28515625 367.078125 C-171.30819947 368.05456279 -170.33176154 369.03151995 -169.3558197 370.00897217 C-167.31359282 372.05110954 -165.26631491 374.08799764 -163.21508789 376.12109375 C-160.58587536 378.72757475 -157.96792807 381.34503271 -155.35343266 383.96626663 C-153.34038789 385.98265132 -151.32239119 387.99401829 -149.30276299 390.00380707 C-148.33538193 390.96733962 -147.36934489 391.9322235 -146.40468025 392.89847565 C-145.05734686 394.24617965 -143.70278522 395.58664571 -142.34790039 396.92675781 C-141.57893936 397.69111145 -140.80997833 398.45546509 -140.01771545 399.24298096 C-138.02556378 401.20510394 -138.02556378 401.20510394 -135 402 C-134.07251953 401.06728271 -133.14503906 400.13456543 -132.18945312 399.17358398 C-128.71809851 395.68400607 -125.24333449 392.19783964 -121.76757812 388.71264648 C-120.26926293 387.20933045 -118.77184993 385.70511464 -117.27539062 384.19995117 C-115.11309775 382.0254053 -112.94748387 379.8542129 -110.78125 377.68359375 C-110.12257935 377.01976181 -109.46390869 376.35592987 -108.78527832 375.67198181 C-105.71130252 372.59764327 -102.6071897 369.62452606 -99.30078125 366.80078125 C-93.37395029 361.68033071 -87.9283471 356.05151906 -82.40625 350.50390625 C-81.20721046 349.30299797 -80.00794723 348.102313 -78.80847168 346.90184021 C-75.67619792 343.76577715 -72.5469409 340.62672111 -69.41833496 337.48699951 C-66.2156273 334.27399999 -63.01003092 331.06388529 -59.8046875 327.85351562 C-53.53365211 321.57180629 -47.26580477 315.28692642 -41 309 C-35.86596622 313.29502434 -31.06917612 317.79698021 -26.35571289 322.54663086 C-25.62626968 323.27753433 -24.89682648 324.00843781 -24.14527893 324.76148987 C-22.57223986 326.33831466 -21.0003564 327.91629299 -19.42952156 329.49531364 C-16.9381932 331.99948446 -14.44368552 334.50044917 -11.948349 337.00062561 C-5.75265652 343.20964082 0.43758197 349.42408441 6.62799072 355.6383667 C11.86560133 360.89576122 17.10528997 366.15106815 22.34771919 371.40365791 C24.79580881 373.85819287 27.24084742 376.31573896 29.68577576 378.77342224 C31.19914035 380.29042229 32.71264717 381.80728048 34.22631836 383.32397461 C35.23266327 384.338069 35.23266327 384.338069 36.25933838 385.37265015 C42.1845201 391.29848416 48.39437034 396.83935183 55 402 C64.49521957 393.40908705 73.65213219 384.48084826 82.72717285 375.45007324 C83.98611358 374.19793454 85.24675957 372.94750788 86.50915527 371.69885254 C88.31612667 369.90997347 90.11596725 368.11420215 91.9140625 366.31640625 C92.45320282 365.78441116 92.99234314 365.25241608 93.54782104 364.70429993 C97.16561857 361.06505807 100.10599185 357.23967861 103 353 C98.53924097 347.79339382 93.94252465 342.80292773 89.07421875 337.9765625 C88.42119781 337.32500183 87.76817688 336.67344116 87.09536743 336.00213623 C85.6915409 334.60208514 84.28656147 333.20318925 82.88052368 331.80535889 C80.64929113 329.58701179 78.42130408 327.36544938 76.1940918 325.14306641 C71.46554046 320.42588472 66.73306799 315.71264924 62 311 C56.51079943 305.53448019 51.02326234 300.06731148 45.53994751 294.59588623 C43.35575645 292.41812903 41.16855206 290.24343039 38.98120117 288.06884766 C37.62924505 286.72052748 36.27743104 285.37206477 34.92578125 284.0234375 C34.32609528 283.42891785 33.7264093 282.83439819 33.10855103 282.22186279 C29.43070852 278.54447383 25.95757958 274.73806384 22.56814575 270.79299927 C20.338639 268.24380768 17.97376533 265.8782343 15.5625 263.5 C14.69753906 262.6440625 13.83257812 261.788125 12.94140625 260.90625 C12.30074219 260.2771875 11.66007813 259.648125 11 259 C12.60547367 254.99405498 15.41986379 252.3184679 18.44018555 249.34863281 C18.99494064 248.79519196 19.54969574 248.2417511 20.1212616 247.67153931 C21.95519362 245.84409375 23.79599868 244.02373077 25.63671875 242.203125 C26.9179747 240.92814444 28.19871354 239.65264403 29.47895813 238.37664795 C32.85372344 235.01518738 36.23399969 231.65932836 39.61590576 228.30505371 C45.01185194 222.95219116 50.40122712 217.59273603 55.78717995 212.22982025 C57.66077537 210.36636041 59.53779729 208.50640551 61.41520691 206.64678955 C66.62903791 201.46951919 71.7606024 196.30045513 76.52696228 190.70135498 C78.93625562 187.91862704 81.53767098 185.33824891 84.15234375 182.75 C84.96983849 181.93462769 84.96983849 181.93462769 85.80384827 181.1027832 C87.51269217 179.39945185 89.22501197 177.69966674 90.9375 176 C92.11026009 174.83226626 93.28278798 173.66429926 94.45507812 172.49609375 C97.30071689 169.66136766 100.14947453 166.82981176 103 164 C101.10811436 159.93772226 98.43361077 156.97740437 95.375 153.75 C94.78251465 153.12029297 94.1900293 152.49058594 93.57958984 151.84179688 C87.36506327 145.2930566 80.9990509 138.89283182 74.625 132.5 C74.10975769 131.98207886 73.59451538 131.46415771 73.06365967 130.93054199 C64.37277701 122.09068025 64.37277701 122.09068025 55 114 C53.81205317 113.88660407 53.81205317 113.88660407 52.63647461 115.26586914 Z " fill="#E04006" transform="translate(299,3)"/>
</svg>
